<?xml version="1.0" encoding="UTF-8"?>
<svg version="1.1" xmlns="http://www.w3.org/2000/svg" width="1200" height="1200">
<path d="M0 0 C87.53889467 -0.06145852 175.07779454 -0.12187787 293.00280762 -0.16937256 C294.46330946 -0.16993036 295.9238113 -0.17048817 297.38431314 -0.17104598 C328.04345588 -0.18273777 358.70259886 -0.19360452 389.36174222 -0.20351871 C404.76380487 -0.20850013 420.16586745 -0.21364002 435.56793 -0.21892977 C437.89121224 -0.21972676 440.21449449 -0.22051924 442.53777673 -0.22131152 C478.29528947 -0.23354539 514.05279676 -0.24916916 549.81030273 -0.2746582 C550.57859286 -0.2752058 551.34688299 -0.27575339 552.13845464 -0.27631758 C564.52485286 -0.28516661 576.91125086 -0.29430122 589.29764884 -0.30347376 C624.9925569 -0.32990267 660.68746075 -0.35420515 696.38237762 -0.36455917 C697.11707258 -0.36477331 697.85176753 -0.36498745 698.60872596 -0.36520808 C714.74060613 -0.36987213 730.87248634 -0.37345109 747.00436697 -0.37600393 C753.49619238 -0.37705036 759.98801776 -0.37825284 766.47984314 -0.37950897 C767.19032635 -0.37964268 767.90080956 -0.37977639 768.63282256 -0.37991415 C791.49006766 -0.38429328 814.34728152 -0.40135489 837.20451403 -0.42512883 C860.88919014 -0.44970334 884.57382128 -0.46004562 908.25851232 -0.45400551 C921.90415721 -0.45096711 935.54968897 -0.45903926 949.1953134 -0.48319017 C958.32174321 -0.49823658 967.4480993 -0.49862179 976.5745343 -0.48732725 C981.76751625 -0.48131318 986.9602849 -0.48144381 992.1532436 -0.49953273 C1052.1729561 -0.69622621 1102.80489083 14.98204093 1146.6875 57.375 C1152.68090314 63.49197846 1157.88822213 70.14514153 1163 77 C1163.93779297 78.24523437 1163.93779297 78.24523437 1164.89453125 79.515625 C1175.12776406 93.60728985 1182.66438889 108.82586826 1189 125 C1189.26151855 125.66177246 1189.52303711 126.32354492 1189.79248047 127.00537109 C1197.07292095 145.82538551 1200.15761447 166.21596501 1200.13422108 186.28581238 C1200.13617599 187.74772039 1200.13856559 189.20962787 1200.14134905 190.67153454 C1200.14773478 194.69344772 1200.14791181 198.71534089 1200.14707164 202.73725818 C1200.14724142 207.11134041 1200.15315077 211.48541554 1200.1583125 215.85949421 C1200.16763302 224.53732651 1200.17155963 233.21515372 1200.17383147 241.8929904 C1200.17679502 252.28691888 1200.18549341 262.68084061 1200.19424575 273.07476555 C1200.21508631 298.19963321 1200.22555986 323.32450204 1200.23437535 348.44937632 C1200.23858295 360.33850846 1200.24380483 372.2276401 1200.24905988 384.11677181 C1200.26695092 424.82424055 1200.28194584 465.53170943 1200.28938007 506.23918152 C1200.28985483 508.79469341 1200.29033072 511.3502053 1200.29080774 513.90571719 C1200.2911623 515.80665424 1200.2911623 515.80665424 1200.29152403 517.74599406 C1200.29272521 524.16660021 1200.29394066 530.58720635 1200.29516602 537.0078125 C1200.29540617 538.28199654 1200.29564632 539.55618058 1200.29589374 540.86897625 C1200.30378369 582.16531978 1200.32720881 623.46163457 1200.35972196 664.75796555 C1200.39404291 708.43032113 1200.41373337 752.1026599 1200.41702431 795.77502918 C1200.41744184 800.57223829 1200.4179214 805.36944739 1200.41844749 810.16665649 C1200.41857069 811.34784315 1200.41869388 812.52902981 1200.4188208 813.74601 C1200.42115014 832.73175746 1200.4367954 851.71747148 1200.45728934 870.70320703 C1200.47757549 889.79995305 1200.48301147 908.89665901 1200.47351871 927.99341381 C1200.46831441 939.32844976 1200.47413046 950.66335206 1200.49605338 961.99836869 C1200.50961209 969.58433093 1200.50843991 977.1702017 1200.49565142 984.75616496 C1200.48878836 989.06917049 1200.48796859 993.38192147 1200.50521151 997.69490373 C1200.72247089 1055.61990177 1183.04282464 1104.97481704 1142.375 1146.875 C1123.04255834 1165.64606405 1099.95743377 1179.22385887 1075 1189 C1074.33822754 1189.26151855 1073.67645508 1189.52303711 1072.99462891 1189.79248047 C1054.17461449 1197.07292095 1033.78403499 1200.15761447 1013.71418762 1200.13422108 C1012.25227961 1200.13617599 1010.79037213 1200.13856559 1009.32846546 1200.14134905 C1005.30655228 1200.14773478 1001.28465911 1200.14791181 997.26274182 1200.14707164 C992.88865959 1200.14724142 988.51458446 1200.15315077 984.14050579 1200.1583125 C975.46267349 1200.16763302 966.78484628 1200.17155963 958.1070096 1200.17383147 C947.71308112 1200.17679502 937.31915939 1200.18549341 926.92523445 1200.19424575 C901.80036679 1200.21508631 876.67549796 1200.22555986 851.55062368 1200.23437535 C839.66149154 1200.23858295 827.7723599 1200.24380483 815.88322819 1200.24905988 C775.17575945 1200.26695092 734.46829057 1200.28194584 693.76081848 1200.28938007 C691.20530659 1200.28985483 688.6497947 1200.29033072 686.09428281 1200.29080774 C684.82699144 1200.29104411 683.55970008 1200.29128049 682.25400594 1200.29152403 C675.83339979 1200.29272521 669.41279365 1200.29394066 662.9921875 1200.29516602 C661.08091144 1200.29552624 661.08091144 1200.29552624 659.13102375 1200.29589374 C617.83468022 1200.30378369 576.53836543 1200.32720881 535.24203445 1200.35972196 C491.56967887 1200.39404291 447.8973401 1200.41373337 404.22497082 1200.41702431 C399.42776171 1200.41744184 394.63055261 1200.4179214 389.83334351 1200.41844749 C388.06156352 1200.41863228 388.06156352 1200.41863228 386.25399 1200.4188208 C367.26824254 1200.42115014 348.28252852 1200.4367954 329.29679297 1200.45728934 C310.20004695 1200.47757549 291.10334099 1200.48301147 272.00658619 1200.47351871 C260.67155024 1200.46831441 249.33664794 1200.47413046 238.00163131 1200.49605338 C230.41566907 1200.50961209 222.8297983 1200.50843991 215.24383504 1200.49565142 C210.93082951 1200.48878836 206.61807853 1200.48796859 202.30509627 1200.50521151 C177.78015231 1200.59715895 154.37833415 1199.01691945 131 1191 C130.33597168 1190.77586426 129.67194336 1190.55172852 128.98779297 1190.32080078 C92.21248895 1177.74281242 60.22779448 1154.0424897 37 1123 C36.37351563 1122.16855469 35.74703125 1121.33710937 35.1015625 1120.48046875 C11.78817674 1088.3561555 -0.37908567 1049.76167173 -0.24609566 1010.22267342 C-0.24757771 1008.45317556 -0.24993783 1006.68367827 -0.25308865 1004.9141826 C-0.25919519 1000.06634755 -0.25290285 995.21859708 -0.24453239 990.37076836 C-0.2376386 985.09132629 -0.24241041 979.81189243 -0.24568737 974.53244865 C-0.24982825 965.28468945 -0.24655854 956.03695603 -0.23841095 946.78919983 C-0.22632953 933.03817644 -0.2257404 919.28716926 -0.22749493 905.53614153 C-0.23012151 882.40354529 -0.22345909 859.27096303 -0.21146011 836.13837051 C-0.19960853 813.23511831 -0.1919086 790.33187082 -0.18975449 767.42861557 C-0.18968566 766.71689185 -0.18961684 766.00516813 -0.18954593 765.27187703 C-0.18891952 758.77121847 -0.18834414 752.27055991 -0.18782998 745.76990134 C-0.18655131 729.61119267 -0.18463275 713.45248411 -0.18227959 697.29377556 C-0.18217295 696.55800637 -0.18206632 695.82223719 -0.18195645 695.06417196 C-0.17671551 659.28773396 -0.16410125 623.51129907 -0.15087891 587.73486328 C-0.14629552 575.32222496 -0.14174476 562.90958663 -0.1373291 550.49694824 C-0.1370552 549.72709774 -0.1367813 548.95724723 -0.13649911 548.16406792 C-0.12380701 512.36443415 -0.1163585 476.56479984 -0.11025951 440.7651644 C-0.10986338 438.44054652 -0.109465 436.11592865 -0.10906615 433.79131077 C-0.10642655 418.38573034 -0.10387726 402.98014989 -0.10138843 387.57456943 C-0.09643565 356.92223239 -0.09095229 326.26989544 -0.08510434 295.61755856 C-0.08482586 294.15786951 -0.08454775 292.69818046 -0.08427001 291.23849141 C-0.06806711 206.10255395 -0.04137261 120.96661989 0 0 Z " fill="#663399" transform="translate(0,0)"/>
<path d="M0 0 C0.78004395 0.21962402 1.56008789 0.43924805 2.36376953 0.66552734 C16.45123859 4.73204293 28.68309048 10.51138465 40 20 C40.99 20.7425 41.98 21.485 43 22.25 C47.6594761 26.18667649 51.2825329 31.20179815 55 36 C55.62261719 36.79535156 56.24523438 37.59070313 56.88671875 38.41015625 C78.57333696 67.60180638 80 106.39522994 80 141 C53.6 141 27.2 141 0 141 C-0.33 133.08 -0.66 125.16 -1 117 C-3.13525263 95.3799493 -3.13525263 95.3799493 -15 78 C-24.25218642 72.21738349 -35.61168074 71.46345041 -46.13671875 73.65234375 C-54.54050662 76.38328179 -60.61961712 80.95671159 -64.875 88.75 C-71.62356962 103.95132348 -70.83733023 123.69000025 -65.25 139.125 C-60.3378875 150.66485253 -51.3191096 158.30674392 -40.3125 163.875 C-39.0917981 164.50607666 -39.0917981 164.50607666 -37.84643555 165.14990234 C-30.91072297 168.67353742 -23.8060714 171.74079733 -16.63476562 174.74780273 C-8.5578211 178.14338255 -0.7465777 181.91121613 7 186 C7.7228418 186.37737305 8.44568359 186.75474609 9.19042969 187.14355469 C24.23946067 195.04672322 37.69114822 204.21901321 50 216 C50.886875 216.845625 51.77375 217.69125 52.6875 218.5625 C53.450625 219.366875 54.21375 220.17125 55 221 C55.51820313 221.52335938 56.03640625 222.04671875 56.5703125 222.5859375 C80.85002036 248.38993195 87.14038677 290.66856869 86.38671875 324.4765625 C85.05525123 357.58264138 73.22155055 390.052776 50 414 C49.401875 414.67160156 48.80375 415.34320312 48.1875 416.03515625 C31.88410777 433.70887671 4.6781117 444.75025637 -19.09573364 446.12081909 C-23.94162691 446.30221969 -28.78518866 446.32822717 -33.6340332 446.31567383 C-36.16597134 446.31252676 -38.69672203 446.33600773 -41.22851562 446.36132812 C-75.13306885 446.49191592 -103.74891559 435.78487121 -128.05078125 411.9921875 C-138.86722623 400.59048397 -145.66656621 386.60927474 -151 372 C-151.69222656 370.21335937 -151.69222656 370.21335937 -152.3984375 368.390625 C-155.45924505 359.74616246 -156.98499822 351.00133767 -158.3125 341.9375 C-158.48418701 340.80989258 -158.65587402 339.68228516 -158.83276367 338.52050781 C-160.40284277 326.80183713 -160 316.14374085 -160 304 C-132.61 304 -105.22 304 -77 304 C-76.505 313.9 -76.505 313.9 -76 324 C-72.94283251 340.23461357 -69.76551089 353.51337519 -57.00390625 364.67578125 C-50.68513831 368.85134135 -45.24616296 369.55284436 -37.8125 369.5 C-36.88429443 369.49427979 -35.95608887 369.48855957 -34.99975586 369.48266602 C-25.98068465 369.24882366 -17.97255078 367.52359688 -11.5 360.8125 C-0.66345386 345.97183417 0.14312082 323.15821078 -2.34130859 305.5859375 C-3.73112096 298.38022041 -6.02766916 291.20593102 -10 285 C-10.43441406 284.29875 -10.86882812 283.5975 -11.31640625 282.875 C-23.06009083 265.92171098 -46.75609737 256.92427188 -64.76922607 248.65957642 C-88.75844157 237.64965151 -109.30995735 225.83980261 -128 207 C-128.64582031 206.35160156 -129.29164063 205.70320312 -129.95703125 205.03515625 C-152.15516651 181.4350335 -156.85736653 145.62205054 -156.31640625 114.5625 C-155.18736991 82.89279458 -145.66479953 50.10711652 -122 28 C-120.7934375 26.7625 -120.7934375 26.7625 -119.5625 25.5 C-118.716875 24.675 -117.87125 23.85 -117 23 C-116.49726562 22.48953125 -115.99453125 21.9790625 -115.4765625 21.453125 C-87.0899454 -5.5699428 -36.06603909 -10.38871537 0 0 Z " fill="#FEFEFE" transform="translate(1019,658)"/>
<path d="M0 0 C0.97090576 0.47131348 0.97090576 0.47131348 1.96142578 0.95214844 C27.56927177 13.59996336 43.27047631 36.20987916 52.33984375 62.8515625 C53.74457979 67.18959394 54.91378401 71.57242002 56 76 C56.29849854 77.2063208 56.29849854 77.2063208 56.60302734 78.43701172 C61.04242225 97.2599007 60 114.13099286 60 134 C33.6 134 7.2 134 -20 134 C-20.66 123.77 -21.32 113.54 -22 103 C-23.81049812 86.17324274 -23.81049812 86.17324274 -32.76953125 72.296875 C-41.20737204 65.8995578 -50.7687065 65.31707064 -61 66 C-69.35249635 67.30889053 -75.91721681 70.21855872 -81.4609375 76.7109375 C-88.03985812 86.16065985 -89.3610226 96.42421028 -89.4375 107.625 C-89.4475708 108.57834229 -89.4576416 109.53168457 -89.46801758 110.51391602 C-89.315128 123.11700478 -85.46726137 135.9545761 -76.765625 145.359375 C-65.75134116 155.59388653 -51.40126321 161.49332285 -37.6875 167.125 C2.86212323 183.88338514 37.55957562 206.03982622 55.17578125 247.390625 C58.04578469 254.4217607 60.0964435 261.65771065 62 269 C62.22300781 269.83660156 62.44601562 270.67320312 62.67578125 271.53515625 C65.65828214 283.7155988 66.37961856 296.19779229 66.3125 308.6875 C66.31100952 309.38010925 66.30951904 310.07271851 66.3079834 310.78631592 C66.18149416 343.65558211 56.94667965 375.29102018 36 401 C35.38769531 401.77730469 34.77539062 402.55460937 34.14453125 403.35546875 C17.74939303 423.10654144 -8.18930473 435.67055487 -33.45654297 438.70703125 C-41.20922094 439.34801331 -48.97454299 439.40674955 -56.75 439.4375 C-57.57462738 439.44385468 -58.39925476 439.45020935 -59.24887085 439.45675659 C-82.18754886 439.56653832 -103.85711833 435.23194736 -124 424 C-124.98871094 423.45472656 -125.97742188 422.90945313 -126.99609375 422.34765625 C-152.68465987 407.09856547 -167.4724272 380.14154139 -175 352 C-179.06561874 333.59101147 -180 315.99171778 -180 297 C-152.28 297 -124.56 297 -96 297 C-95.67 304.26 -95.34 311.52 -95 319 C-93.1429904 333.63760505 -89.14250443 347.79532243 -77.37109375 357.51953125 C-70.71501093 361.67547094 -65.49928102 362.52567046 -57.75 362.4375 C-56.35273682 362.42505249 -56.35273682 362.42505249 -54.92724609 362.41235352 C-46.15995075 362.19711588 -38.91441739 360.88320278 -32.125 355 C-20.08830133 341.52005209 -21.2597082 321.06797772 -21.8046875 304.30078125 C-22.44560805 293.469224 -25.48041853 283.77758286 -32 275 C-32.46664062 274.3296875 -32.93328125 273.659375 -33.4140625 272.96875 C-45.45685678 257.40575432 -68.64386681 248.7528999 -86.0625 241 C-119.21428515 226.23909345 -150.80414119 206.31926266 -166 172 C-166.55107422 170.76636719 -166.55107422 170.76636719 -167.11328125 169.5078125 C-172.60265074 155.90095839 -175.14382818 139.74828571 -175.16796875 125.125 C-175.17129715 124.39740479 -175.17462555 123.66980957 -175.17805481 122.92016602 C-175.18308394 121.38737614 -175.18546439 119.85457546 -175.18530273 118.32177734 C-175.18746845 116.0333333 -175.20560964 113.74538903 -175.22460938 111.45703125 C-175.27616081 98.30165429 -174.33118286 85.30391235 -170.8125 72.5625 C-170.59819336 71.77593018 -170.38388672 70.98936035 -170.16308594 70.17895508 C-164.884311 51.54831412 -156.55308916 35.95659619 -143 22 C-142.31550781 21.24203125 -141.63101563 20.4840625 -140.92578125 19.703125 C-128.38733996 6.26080347 -110.50557999 -2.21081317 -93 -7 C-92.27296875 -7.19899902 -91.5459375 -7.39799805 -90.796875 -7.60302734 C-61.75909689 -15.14025674 -27.06412159 -13.33417914 0 0 Z " fill="#FEFEFE" transform="translate(769,665)"/>
<path d="M0 0 C0.85722656 0.78503906 1.71445312 1.57007813 2.59765625 2.37890625 C3.14309082 2.87664551 3.68852539 3.37438477 4.25048828 3.88720703 C28.85858958 26.61426319 37.91867073 57.7845824 40.59765625 90.37890625 C40.59765625 99.94890625 40.59765625 109.51890625 40.59765625 119.37890625 C11.22765625 119.37890625 -18.14234375 119.37890625 -48.40234375 119.37890625 C-48.73234375 111.12890625 -49.06234375 102.87890625 -49.40234375 94.37890625 C-50.88157194 80.83827893 -53.70940155 70.50505782 -64.40234375 61.37890625 C-73.61050328 55.18913134 -84.70493761 55.12647889 -95.40234375 56.37890625 C-101.77650782 57.82793025 -106.80833521 60.68415536 -111.40234375 65.37890625 C-115.62874755 72.1298604 -119.09075523 79.49476199 -120.40234375 87.37890625 C-120.56550394 88.29387815 -120.72866413 89.20885006 -120.89676857 90.15154839 C-122.55762362 100.38377127 -122.69941447 110.39235987 -122.69287109 120.73486328 C-122.69886868 122.6453426 -122.70567701 124.55581952 -122.71322632 126.46629333 C-122.73076925 131.61748251 -122.73557674 136.76860509 -122.73685789 141.91982126 C-122.73828682 145.14931192 -122.74257038 148.37878603 -122.74785233 151.60827255 C-122.76631454 162.90682791 -122.77452781 174.20533631 -122.77294922 185.50390625 C-122.77174916 195.98417353 -122.79283477 206.46423443 -122.82443655 216.94444954 C-122.85071261 225.98531903 -122.86131178 235.02612157 -122.8600384 244.06702888 C-122.85953205 249.44763398 -122.86503225 254.82805542 -122.8863945 260.20862198 C-122.90596882 265.27645373 -122.90577224 270.34393022 -122.89136124 275.41177559 C-122.88929554 277.25460781 -122.89383741 279.09746342 -122.90608215 280.94025612 C-123.01403533 298.33594465 -121.81564055 319.12182053 -111.21484375 333.75390625 C-101.56359626 342.76173724 -92.74171567 343.84655396 -80.1328125 343.66015625 C-71.76521981 343.33104739 -65.22620066 340.3382017 -59.40234375 334.37890625 C-47.83510626 320.13186887 -49.07792273 299.26838087 -48.40234375 282.37890625 C-19.03234375 282.37890625 10.33765625 282.37890625 40.59765625 282.37890625 C40.59765625 311.40491073 39.75493804 335.75469388 26.59765625 361.37890625 C26.159375 362.26449219 25.72109375 363.15007812 25.26953125 364.0625 C13.01576494 387.79575617 -6.48162976 403.46922586 -30.40234375 414.37890625 C-31.44777344 414.86359375 -32.49320313 415.34828125 -33.5703125 415.84765625 C-43.43093629 420.0317243 -53.89599039 421.62375485 -64.40234375 423.37890625 C-65.80154053 423.64586304 -65.80154053 423.64586304 -67.22900391 423.91821289 C-72.96906665 424.75153328 -78.7678566 424.56483051 -84.55737305 424.56420898 C-86.8021211 424.56636994 -89.04635597 424.58448261 -91.29101562 424.60351562 C-104.04014324 424.65458492 -116.48388574 423.54344333 -128.83984375 420.19140625 C-129.63205322 419.9785498 -130.4242627 419.76569336 -131.24047852 419.54638672 C-148.47080683 414.70116399 -164.01554661 406.26929404 -177.40234375 394.37890625 C-178.17320312 393.7034375 -178.9440625 393.02796875 -179.73828125 392.33203125 C-201.78476761 371.75531065 -210.56900075 339.97926306 -211.67664719 310.70763779 C-211.82190205 304.71114194 -211.80890161 298.71608251 -211.79052734 292.71826172 C-211.79460548 290.4420751 -211.79995425 288.16589046 -211.80645752 285.88970947 C-211.81998775 279.77824349 -211.81489272 273.66693156 -211.80532026 267.55546331 C-211.79765059 261.11868765 -211.80478917 254.68192396 -211.80947876 248.24514771 C-211.81526121 236.75515683 -211.80602214 225.26524379 -211.79070075 213.77526511 C-211.77729542 203.4017376 -211.77963666 193.02831086 -211.79345703 182.65478516 C-211.80958613 170.54304817 -211.81544869 158.43139003 -211.80662024 146.31964028 C-211.80197365 139.93204149 -211.80123518 133.54451177 -211.81122971 127.15691757 C-211.81997458 121.15005678 -211.81374183 115.14338402 -211.79654694 109.13654327 C-211.79262225 106.94862554 -211.79364595 104.76069164 -211.80033493 102.57278061 C-211.84809293 85.34719397 -211.0870525 67.94256882 -205.21484375 51.56640625 C-204.76202026 50.26606445 -204.76202026 50.26606445 -204.30004883 48.93945312 C-194.54418102 21.87010855 -175.28829256 1.09946917 -149.58984375 -11.73828125 C-105.82949044 -32.2349837 -38.40203862 -32.76033679 0 0 Z " fill="#FEFEFE" transform="translate(517.40234375,679.62109375)"/>
</svg>
